<mxfile host="app.diagrams.net" modified="2023-04-13T22:23:16.623Z" agent="Mozilla/5.0 (Windows NT 10.0; Win64; x64) AppleWebKit/537.36 (KHTML, like Gecko) Chrome/112.0.0.0 Safari/537.36" etag="VdLsduEKkSbz8t4bwSlN" version="21.1.2" type="device">
  <diagram name="Page-1" id="74e2e168-ea6b-b213-b513-2b3c1d86103e">
    <mxGraphModel dx="1586" dy="860" grid="1" gridSize="10" guides="1" tooltips="1" connect="1" arrows="1" fold="1" page="1" pageScale="1" pageWidth="1100" pageHeight="850" background="none" math="0" shadow="0">
      <root>
        <mxCell id="0" />
        <mxCell id="1" parent="0" />
        <mxCell id="E6c6x8Zhx2v9xlgIFuhv-1" value="&lt;font style=&quot;font-size: 15px;&quot;&gt;Zamówienie&lt;/font&gt;" style="rounded=0;whiteSpace=wrap;html=1;" vertex="1" parent="1">
          <mxGeometry x="420" y="422.5" width="100" height="50" as="geometry" />
        </mxCell>
        <mxCell id="E6c6x8Zhx2v9xlgIFuhv-3" value="&lt;font style=&quot;font-size: 12px;&quot;&gt;data&lt;/font&gt;" style="ellipse;whiteSpace=wrap;html=1;" vertex="1" parent="1">
          <mxGeometry x="360" y="367.5" width="80" height="45" as="geometry" />
        </mxCell>
        <mxCell id="E6c6x8Zhx2v9xlgIFuhv-4" value="&lt;font style=&quot;font-size: 12px;&quot;&gt;czas&lt;/font&gt;" style="ellipse;whiteSpace=wrap;html=1;" vertex="1" parent="1">
          <mxGeometry x="515" y="380" width="70" height="35" as="geometry" />
        </mxCell>
        <mxCell id="E6c6x8Zhx2v9xlgIFuhv-5" value="&lt;font style=&quot;font-size: 15px;&quot;&gt;Płatność&lt;/font&gt;" style="rounded=0;whiteSpace=wrap;html=1;" vertex="1" parent="1">
          <mxGeometry x="90" y="427.5" width="110" height="40" as="geometry" />
        </mxCell>
        <mxCell id="E6c6x8Zhx2v9xlgIFuhv-6" value="&lt;u&gt;ID_platnosci&lt;/u&gt;" style="ellipse;whiteSpace=wrap;html=1;" vertex="1" parent="1">
          <mxGeometry x="110" y="496.25" width="100" height="60" as="geometry" />
        </mxCell>
        <mxCell id="E6c6x8Zhx2v9xlgIFuhv-7" value="&lt;font style=&quot;font-size: 12px;&quot;&gt;data_platnosci&lt;/font&gt;" style="ellipse;whiteSpace=wrap;html=1;" vertex="1" parent="1">
          <mxGeometry x="40" y="345" width="110" height="60" as="geometry" />
        </mxCell>
        <mxCell id="E6c6x8Zhx2v9xlgIFuhv-8" value="ID_zamowienia" style="ellipse;whiteSpace=wrap;html=1;" vertex="1" parent="1">
          <mxGeometry x="160" y="345" width="100" height="60" as="geometry" />
        </mxCell>
        <mxCell id="E6c6x8Zhx2v9xlgIFuhv-9" value="&lt;font style=&quot;font-size: 12px;&quot;&gt;ID_klienta&lt;/font&gt;" style="ellipse;whiteSpace=wrap;html=1;" vertex="1" parent="1">
          <mxGeometry y="412.5" width="80" height="55" as="geometry" />
        </mxCell>
        <mxCell id="E6c6x8Zhx2v9xlgIFuhv-10" value="&lt;font style=&quot;font-size: 12px;&quot;&gt;suma&lt;/font&gt;" style="ellipse;whiteSpace=wrap;html=1;" vertex="1" parent="1">
          <mxGeometry x="30" y="480" width="70" height="50" as="geometry" />
        </mxCell>
        <mxCell id="E6c6x8Zhx2v9xlgIFuhv-13" value="&lt;font style=&quot;font-size: 15px;&quot;&gt;Szczegóły&lt;/font&gt;" style="rounded=0;whiteSpace=wrap;html=1;" vertex="1" parent="1">
          <mxGeometry x="860" y="427.5" width="90" height="40" as="geometry" />
        </mxCell>
        <mxCell id="E6c6x8Zhx2v9xlgIFuhv-15" value="&lt;u&gt;ID_zamowienia&lt;/u&gt;" style="ellipse;whiteSpace=wrap;html=1;" vertex="1" parent="1">
          <mxGeometry x="525" y="480" width="85" height="50" as="geometry" />
        </mxCell>
        <mxCell id="E6c6x8Zhx2v9xlgIFuhv-16" value="&lt;u&gt;ID_zam_danie&lt;/u&gt;" style="ellipse;whiteSpace=wrap;html=1;" vertex="1" parent="1">
          <mxGeometry x="880" y="340" width="110" height="60" as="geometry" />
        </mxCell>
        <mxCell id="E6c6x8Zhx2v9xlgIFuhv-18" value="ID_zamowienia" style="ellipse;whiteSpace=wrap;html=1;" vertex="1" parent="1">
          <mxGeometry x="980" y="400" width="100" height="50" as="geometry" />
        </mxCell>
        <mxCell id="E6c6x8Zhx2v9xlgIFuhv-19" value="ID_dania" style="ellipse;whiteSpace=wrap;html=1;" vertex="1" parent="1">
          <mxGeometry x="970" y="471.25" width="90" height="50" as="geometry" />
        </mxCell>
        <mxCell id="E6c6x8Zhx2v9xlgIFuhv-23" value="ilosc" style="ellipse;whiteSpace=wrap;html=1;" vertex="1" parent="1">
          <mxGeometry x="770" y="365" width="80" height="40" as="geometry" />
        </mxCell>
        <mxCell id="E6c6x8Zhx2v9xlgIFuhv-25" value="&lt;font style=&quot;font-size: 15px;&quot;&gt;Danie&lt;/font&gt;" style="rounded=0;whiteSpace=wrap;html=1;" vertex="1" parent="1">
          <mxGeometry x="860" y="695" width="90" height="50" as="geometry" />
        </mxCell>
        <mxCell id="E6c6x8Zhx2v9xlgIFuhv-27" value="&lt;u&gt;ID_danie&lt;/u&gt;" style="ellipse;whiteSpace=wrap;html=1;" vertex="1" parent="1">
          <mxGeometry x="880" y="780" width="70" height="40" as="geometry" />
        </mxCell>
        <mxCell id="E6c6x8Zhx2v9xlgIFuhv-28" value="sklad" style="ellipse;whiteSpace=wrap;html=1;" vertex="1" parent="1">
          <mxGeometry x="790" y="760" width="70" height="40" as="geometry" />
        </mxCell>
        <mxCell id="E6c6x8Zhx2v9xlgIFuhv-29" value="nazwa" style="ellipse;whiteSpace=wrap;html=1;" vertex="1" parent="1">
          <mxGeometry x="980" y="670" width="70" height="50" as="geometry" />
        </mxCell>
        <mxCell id="E6c6x8Zhx2v9xlgIFuhv-30" value="cena" style="ellipse;whiteSpace=wrap;html=1;" vertex="1" parent="1">
          <mxGeometry x="960" y="740" width="80" height="50" as="geometry" />
        </mxCell>
        <mxCell id="E6c6x8Zhx2v9xlgIFuhv-32" value="&lt;font style=&quot;font-size: 15px;&quot;&gt;Dostawa&lt;/font&gt;" style="rounded=0;whiteSpace=wrap;html=1;" vertex="1" parent="1">
          <mxGeometry x="415" y="690" width="110" height="50" as="geometry" />
        </mxCell>
        <mxCell id="E6c6x8Zhx2v9xlgIFuhv-33" value="&lt;u&gt;ID_dostawy&lt;/u&gt;" style="ellipse;whiteSpace=wrap;html=1;" vertex="1" parent="1">
          <mxGeometry x="280" y="645" width="90" height="50" as="geometry" />
        </mxCell>
        <mxCell id="E6c6x8Zhx2v9xlgIFuhv-34" value="ID_zamowienia" style="ellipse;whiteSpace=wrap;html=1;" vertex="1" parent="1">
          <mxGeometry x="270" y="720" width="110" height="60" as="geometry" />
        </mxCell>
        <mxCell id="E6c6x8Zhx2v9xlgIFuhv-35" value="status" style="ellipse;whiteSpace=wrap;html=1;" vertex="1" parent="1">
          <mxGeometry x="405" y="780" width="100" height="40" as="geometry" />
        </mxCell>
        <mxCell id="E6c6x8Zhx2v9xlgIFuhv-36" value="data_odbioru" style="ellipse;whiteSpace=wrap;html=1;" vertex="1" parent="1">
          <mxGeometry x="540" y="720" width="90" height="60" as="geometry" />
        </mxCell>
        <mxCell id="E6c6x8Zhx2v9xlgIFuhv-37" value="godz_odbioru" style="ellipse;whiteSpace=wrap;html=1;" vertex="1" parent="1">
          <mxGeometry x="550" y="650" width="80" height="50" as="geometry" />
        </mxCell>
        <mxCell id="E6c6x8Zhx2v9xlgIFuhv-43" value="&lt;font style=&quot;font-size: 15px;&quot;&gt;Klient&lt;/font&gt;" style="rounded=0;whiteSpace=wrap;html=1;" vertex="1" parent="1">
          <mxGeometry x="415" y="110" width="110" height="40" as="geometry" />
        </mxCell>
        <mxCell id="E6c6x8Zhx2v9xlgIFuhv-44" value="&lt;u&gt;ID_klienta&lt;/u&gt;" style="ellipse;whiteSpace=wrap;html=1;" vertex="1" parent="1">
          <mxGeometry x="330" y="40" width="90" height="50" as="geometry" />
        </mxCell>
        <mxCell id="E6c6x8Zhx2v9xlgIFuhv-45" value="imie" style="ellipse;whiteSpace=wrap;html=1;" vertex="1" parent="1">
          <mxGeometry x="290" y="110" width="80" height="40" as="geometry" />
        </mxCell>
        <mxCell id="E6c6x8Zhx2v9xlgIFuhv-46" value="nazwisko" style="ellipse;whiteSpace=wrap;html=1;" vertex="1" parent="1">
          <mxGeometry x="430" y="20" width="90" height="50" as="geometry" />
        </mxCell>
        <mxCell id="E6c6x8Zhx2v9xlgIFuhv-47" value="ulica" style="ellipse;whiteSpace=wrap;html=1;" vertex="1" parent="1">
          <mxGeometry x="530" y="30" width="70" height="40" as="geometry" />
        </mxCell>
        <mxCell id="E6c6x8Zhx2v9xlgIFuhv-48" value="kod" style="ellipse;whiteSpace=wrap;html=1;" vertex="1" parent="1">
          <mxGeometry x="580" y="80" width="70" height="40" as="geometry" />
        </mxCell>
        <mxCell id="E6c6x8Zhx2v9xlgIFuhv-49" value="miejscowosc" style="ellipse;whiteSpace=wrap;html=1;" vertex="1" parent="1">
          <mxGeometry x="585" y="130" width="80" height="50" as="geometry" />
        </mxCell>
        <mxCell id="E6c6x8Zhx2v9xlgIFuhv-50" value="telefon" style="ellipse;whiteSpace=wrap;html=1;" vertex="1" parent="1">
          <mxGeometry x="315" y="170" width="80" height="50" as="geometry" />
        </mxCell>
        <mxCell id="E6c6x8Zhx2v9xlgIFuhv-51" value="email" style="ellipse;whiteSpace=wrap;html=1;" vertex="1" parent="1">
          <mxGeometry x="515" y="180" width="90" height="50" as="geometry" />
        </mxCell>
        <mxCell id="E6c6x8Zhx2v9xlgIFuhv-54" value="" style="rhombus;whiteSpace=wrap;html=1;direction=south;" vertex="1" parent="1">
          <mxGeometry x="395" y="240" width="150" height="60" as="geometry" />
        </mxCell>
        <mxCell id="E6c6x8Zhx2v9xlgIFuhv-56" value="Realizuje" style="rhombus;whiteSpace=wrap;html=1;direction=south;" vertex="1" parent="1">
          <mxGeometry x="412.5" y="246.25" width="115" height="47.5" as="geometry" />
        </mxCell>
        <mxCell id="E6c6x8Zhx2v9xlgIFuhv-71" value="" style="endArrow=none;html=1;rounded=0;entryX=0.5;entryY=0;entryDx=0;entryDy=0;exitX=1;exitY=0.5;exitDx=0;exitDy=0;" edge="1" parent="1" source="E6c6x8Zhx2v9xlgIFuhv-54" target="E6c6x8Zhx2v9xlgIFuhv-1">
          <mxGeometry width="50" height="50" relative="1" as="geometry">
            <mxPoint x="420" y="300" as="sourcePoint" />
            <mxPoint x="470" y="250" as="targetPoint" />
          </mxGeometry>
        </mxCell>
        <mxCell id="E6c6x8Zhx2v9xlgIFuhv-74" value="" style="endArrow=classic;html=1;rounded=0;entryX=0.5;entryY=1;entryDx=0;entryDy=0;exitX=0;exitY=0.5;exitDx=0;exitDy=0;" edge="1" parent="1" source="E6c6x8Zhx2v9xlgIFuhv-54" target="E6c6x8Zhx2v9xlgIFuhv-43">
          <mxGeometry width="50" height="50" relative="1" as="geometry">
            <mxPoint x="450" y="270" as="sourcePoint" />
            <mxPoint x="500" y="220" as="targetPoint" />
          </mxGeometry>
        </mxCell>
        <mxCell id="E6c6x8Zhx2v9xlgIFuhv-75" value="" style="endArrow=none;html=1;rounded=0;exitX=1;exitY=0;exitDx=0;exitDy=0;entryX=0;entryY=1;entryDx=0;entryDy=0;" edge="1" parent="1" source="E6c6x8Zhx2v9xlgIFuhv-50" target="E6c6x8Zhx2v9xlgIFuhv-43">
          <mxGeometry width="50" height="50" relative="1" as="geometry">
            <mxPoint x="420" y="150" as="sourcePoint" />
            <mxPoint x="470" y="100" as="targetPoint" />
          </mxGeometry>
        </mxCell>
        <mxCell id="E6c6x8Zhx2v9xlgIFuhv-76" value="" style="endArrow=none;html=1;rounded=0;exitX=1;exitY=0.5;exitDx=0;exitDy=0;entryX=0;entryY=0.5;entryDx=0;entryDy=0;" edge="1" parent="1" source="E6c6x8Zhx2v9xlgIFuhv-45" target="E6c6x8Zhx2v9xlgIFuhv-43">
          <mxGeometry width="50" height="50" relative="1" as="geometry">
            <mxPoint x="380" y="150" as="sourcePoint" />
            <mxPoint x="430" y="100" as="targetPoint" />
          </mxGeometry>
        </mxCell>
        <mxCell id="E6c6x8Zhx2v9xlgIFuhv-77" value="" style="endArrow=none;html=1;rounded=0;exitX=1;exitY=1;exitDx=0;exitDy=0;entryX=0;entryY=0;entryDx=0;entryDy=0;" edge="1" parent="1" source="E6c6x8Zhx2v9xlgIFuhv-44" target="E6c6x8Zhx2v9xlgIFuhv-43">
          <mxGeometry width="50" height="50" relative="1" as="geometry">
            <mxPoint x="450" y="130" as="sourcePoint" />
            <mxPoint x="500" y="80" as="targetPoint" />
          </mxGeometry>
        </mxCell>
        <mxCell id="E6c6x8Zhx2v9xlgIFuhv-78" value="" style="endArrow=none;html=1;rounded=0;entryX=0.5;entryY=1;entryDx=0;entryDy=0;exitX=0.5;exitY=0;exitDx=0;exitDy=0;" edge="1" parent="1" source="E6c6x8Zhx2v9xlgIFuhv-43" target="E6c6x8Zhx2v9xlgIFuhv-46">
          <mxGeometry width="50" height="50" relative="1" as="geometry">
            <mxPoint x="450" y="130" as="sourcePoint" />
            <mxPoint x="500" y="80" as="targetPoint" />
          </mxGeometry>
        </mxCell>
        <mxCell id="E6c6x8Zhx2v9xlgIFuhv-79" value="" style="endArrow=none;html=1;rounded=0;entryX=0.5;entryY=1;entryDx=0;entryDy=0;exitX=1;exitY=0;exitDx=0;exitDy=0;" edge="1" parent="1" source="E6c6x8Zhx2v9xlgIFuhv-43" target="E6c6x8Zhx2v9xlgIFuhv-47">
          <mxGeometry width="50" height="50" relative="1" as="geometry">
            <mxPoint x="540" y="130" as="sourcePoint" />
            <mxPoint x="590" y="80" as="targetPoint" />
          </mxGeometry>
        </mxCell>
        <mxCell id="E6c6x8Zhx2v9xlgIFuhv-80" value="" style="endArrow=none;html=1;rounded=0;entryX=0;entryY=0.5;entryDx=0;entryDy=0;exitX=1;exitY=0.5;exitDx=0;exitDy=0;" edge="1" parent="1" source="E6c6x8Zhx2v9xlgIFuhv-43" target="E6c6x8Zhx2v9xlgIFuhv-48">
          <mxGeometry width="50" height="50" relative="1" as="geometry">
            <mxPoint x="540" y="130" as="sourcePoint" />
            <mxPoint x="590" y="80" as="targetPoint" />
          </mxGeometry>
        </mxCell>
        <mxCell id="E6c6x8Zhx2v9xlgIFuhv-81" value="" style="endArrow=none;html=1;rounded=0;exitX=1;exitY=0.75;exitDx=0;exitDy=0;entryX=0;entryY=0.5;entryDx=0;entryDy=0;" edge="1" parent="1" source="E6c6x8Zhx2v9xlgIFuhv-43" target="E6c6x8Zhx2v9xlgIFuhv-49">
          <mxGeometry width="50" height="50" relative="1" as="geometry">
            <mxPoint x="540" y="130" as="sourcePoint" />
            <mxPoint x="590" y="80" as="targetPoint" />
          </mxGeometry>
        </mxCell>
        <mxCell id="E6c6x8Zhx2v9xlgIFuhv-82" value="" style="endArrow=none;html=1;rounded=0;exitX=0.75;exitY=1;exitDx=0;exitDy=0;entryX=0;entryY=0;entryDx=0;entryDy=0;" edge="1" parent="1" source="E6c6x8Zhx2v9xlgIFuhv-43" target="E6c6x8Zhx2v9xlgIFuhv-51">
          <mxGeometry width="50" height="50" relative="1" as="geometry">
            <mxPoint x="520" y="190" as="sourcePoint" />
            <mxPoint x="570" y="140" as="targetPoint" />
          </mxGeometry>
        </mxCell>
        <mxCell id="E6c6x8Zhx2v9xlgIFuhv-83" value="" style="endArrow=none;html=1;rounded=0;entryX=0.5;entryY=1;entryDx=0;entryDy=0;exitX=0;exitY=0.5;exitDx=0;exitDy=0;" edge="1" parent="1" source="E6c6x8Zhx2v9xlgIFuhv-84" target="E6c6x8Zhx2v9xlgIFuhv-1">
          <mxGeometry width="50" height="50" relative="1" as="geometry">
            <mxPoint x="470" y="530" as="sourcePoint" />
            <mxPoint x="490" y="550" as="targetPoint" />
          </mxGeometry>
        </mxCell>
        <mxCell id="E6c6x8Zhx2v9xlgIFuhv-84" value="" style="rhombus;whiteSpace=wrap;html=1;direction=south;" vertex="1" parent="1">
          <mxGeometry x="395" y="550" width="150" height="60" as="geometry" />
        </mxCell>
        <mxCell id="E6c6x8Zhx2v9xlgIFuhv-85" value="Zawiera" style="rhombus;whiteSpace=wrap;html=1;direction=south;" vertex="1" parent="1">
          <mxGeometry x="412.5" y="556.25" width="115" height="47.5" as="geometry" />
        </mxCell>
        <mxCell id="E6c6x8Zhx2v9xlgIFuhv-86" value="" style="endArrow=classic;html=1;rounded=0;entryX=0.5;entryY=0;entryDx=0;entryDy=0;exitX=1;exitY=0.5;exitDx=0;exitDy=0;" edge="1" parent="1" source="E6c6x8Zhx2v9xlgIFuhv-84" target="E6c6x8Zhx2v9xlgIFuhv-32">
          <mxGeometry width="50" height="50" relative="1" as="geometry">
            <mxPoint x="440" y="620" as="sourcePoint" />
            <mxPoint x="490" y="570" as="targetPoint" />
          </mxGeometry>
        </mxCell>
        <mxCell id="E6c6x8Zhx2v9xlgIFuhv-87" value="" style="endArrow=none;html=1;rounded=0;exitX=1;exitY=0.5;exitDx=0;exitDy=0;entryX=0;entryY=0;entryDx=0;entryDy=0;" edge="1" parent="1" source="E6c6x8Zhx2v9xlgIFuhv-33" target="E6c6x8Zhx2v9xlgIFuhv-32">
          <mxGeometry width="50" height="50" relative="1" as="geometry">
            <mxPoint x="400" y="680" as="sourcePoint" />
            <mxPoint x="450" y="630" as="targetPoint" />
          </mxGeometry>
        </mxCell>
        <mxCell id="E6c6x8Zhx2v9xlgIFuhv-89" value="" style="endArrow=none;html=1;rounded=0;exitX=1;exitY=0.5;exitDx=0;exitDy=0;entryX=0;entryY=0.75;entryDx=0;entryDy=0;" edge="1" parent="1" source="E6c6x8Zhx2v9xlgIFuhv-34" target="E6c6x8Zhx2v9xlgIFuhv-32">
          <mxGeometry width="50" height="50" relative="1" as="geometry">
            <mxPoint x="400" y="680" as="sourcePoint" />
            <mxPoint x="410" y="730" as="targetPoint" />
          </mxGeometry>
        </mxCell>
        <mxCell id="E6c6x8Zhx2v9xlgIFuhv-90" value="" style="endArrow=none;html=1;rounded=0;exitX=0.5;exitY=0;exitDx=0;exitDy=0;entryX=0.5;entryY=1;entryDx=0;entryDy=0;" edge="1" parent="1" source="E6c6x8Zhx2v9xlgIFuhv-35" target="E6c6x8Zhx2v9xlgIFuhv-32">
          <mxGeometry width="50" height="50" relative="1" as="geometry">
            <mxPoint x="380" y="730" as="sourcePoint" />
            <mxPoint x="430" y="680" as="targetPoint" />
          </mxGeometry>
        </mxCell>
        <mxCell id="E6c6x8Zhx2v9xlgIFuhv-91" value="" style="endArrow=none;html=1;rounded=0;exitX=1;exitY=0.75;exitDx=0;exitDy=0;" edge="1" parent="1" source="E6c6x8Zhx2v9xlgIFuhv-32" target="E6c6x8Zhx2v9xlgIFuhv-36">
          <mxGeometry width="50" height="50" relative="1" as="geometry">
            <mxPoint x="470" y="740" as="sourcePoint" />
            <mxPoint x="520" y="690" as="targetPoint" />
          </mxGeometry>
        </mxCell>
        <mxCell id="E6c6x8Zhx2v9xlgIFuhv-92" value="" style="endArrow=none;html=1;rounded=0;entryX=0;entryY=1;entryDx=0;entryDy=0;exitX=1;exitY=0.25;exitDx=0;exitDy=0;" edge="1" parent="1" source="E6c6x8Zhx2v9xlgIFuhv-32" target="E6c6x8Zhx2v9xlgIFuhv-37">
          <mxGeometry width="50" height="50" relative="1" as="geometry">
            <mxPoint x="530" y="700" as="sourcePoint" />
            <mxPoint x="550" y="660" as="targetPoint" />
          </mxGeometry>
        </mxCell>
        <mxCell id="E6c6x8Zhx2v9xlgIFuhv-94" value="" style="rhombus;whiteSpace=wrap;html=1;direction=south;" vertex="1" parent="1">
          <mxGeometry x="240" y="417.5" width="150" height="60" as="geometry" />
        </mxCell>
        <mxCell id="E6c6x8Zhx2v9xlgIFuhv-95" value="Wchodzi w" style="rhombus;whiteSpace=wrap;html=1;direction=south;" vertex="1" parent="1">
          <mxGeometry x="257.5" y="423.75" width="115" height="47.5" as="geometry" />
        </mxCell>
        <mxCell id="E6c6x8Zhx2v9xlgIFuhv-100" value="" style="endArrow=none;html=1;rounded=0;entryX=0.5;entryY=1;entryDx=0;entryDy=0;exitX=1;exitY=0.5;exitDx=0;exitDy=0;" edge="1" parent="1" source="E6c6x8Zhx2v9xlgIFuhv-5" target="E6c6x8Zhx2v9xlgIFuhv-94">
          <mxGeometry width="50" height="50" relative="1" as="geometry">
            <mxPoint x="200" y="510" as="sourcePoint" />
            <mxPoint x="250" y="460" as="targetPoint" />
          </mxGeometry>
        </mxCell>
        <mxCell id="E6c6x8Zhx2v9xlgIFuhv-101" value="" style="endArrow=classic;html=1;rounded=0;entryX=0;entryY=0.5;entryDx=0;entryDy=0;exitX=0.5;exitY=0;exitDx=0;exitDy=0;" edge="1" parent="1" source="E6c6x8Zhx2v9xlgIFuhv-94" target="E6c6x8Zhx2v9xlgIFuhv-1">
          <mxGeometry width="50" height="50" relative="1" as="geometry">
            <mxPoint x="330" y="500" as="sourcePoint" />
            <mxPoint x="380" y="450" as="targetPoint" />
          </mxGeometry>
        </mxCell>
        <mxCell id="E6c6x8Zhx2v9xlgIFuhv-102" value="" style="endArrow=none;html=1;rounded=0;entryX=0.5;entryY=1;entryDx=0;entryDy=0;exitX=0.75;exitY=0;exitDx=0;exitDy=0;" edge="1" parent="1" source="E6c6x8Zhx2v9xlgIFuhv-5" target="E6c6x8Zhx2v9xlgIFuhv-8">
          <mxGeometry width="50" height="50" relative="1" as="geometry">
            <mxPoint x="120" y="480" as="sourcePoint" />
            <mxPoint x="170" y="430" as="targetPoint" />
          </mxGeometry>
        </mxCell>
        <mxCell id="E6c6x8Zhx2v9xlgIFuhv-103" value="" style="endArrow=none;html=1;rounded=0;exitX=0.5;exitY=1;exitDx=0;exitDy=0;entryX=0.25;entryY=0;entryDx=0;entryDy=0;" edge="1" parent="1" source="E6c6x8Zhx2v9xlgIFuhv-7" target="E6c6x8Zhx2v9xlgIFuhv-5">
          <mxGeometry width="50" height="50" relative="1" as="geometry">
            <mxPoint x="120" y="480" as="sourcePoint" />
            <mxPoint x="170" y="430" as="targetPoint" />
          </mxGeometry>
        </mxCell>
        <mxCell id="E6c6x8Zhx2v9xlgIFuhv-104" value="" style="endArrow=none;html=1;rounded=0;entryX=0;entryY=0.5;entryDx=0;entryDy=0;exitX=1;exitY=0.5;exitDx=0;exitDy=0;" edge="1" parent="1" source="E6c6x8Zhx2v9xlgIFuhv-9" target="E6c6x8Zhx2v9xlgIFuhv-5">
          <mxGeometry width="50" height="50" relative="1" as="geometry">
            <mxPoint x="80" y="510" as="sourcePoint" />
            <mxPoint x="130" y="460" as="targetPoint" />
          </mxGeometry>
        </mxCell>
        <mxCell id="E6c6x8Zhx2v9xlgIFuhv-105" value="" style="endArrow=none;html=1;rounded=0;entryX=0.25;entryY=1;entryDx=0;entryDy=0;exitX=1;exitY=0;exitDx=0;exitDy=0;" edge="1" parent="1" source="E6c6x8Zhx2v9xlgIFuhv-10" target="E6c6x8Zhx2v9xlgIFuhv-5">
          <mxGeometry width="50" height="50" relative="1" as="geometry">
            <mxPoint x="80" y="510" as="sourcePoint" />
            <mxPoint x="130" y="460" as="targetPoint" />
          </mxGeometry>
        </mxCell>
        <mxCell id="E6c6x8Zhx2v9xlgIFuhv-106" value="" style="endArrow=none;html=1;rounded=0;entryX=0.5;entryY=1;entryDx=0;entryDy=0;exitX=0.5;exitY=0;exitDx=0;exitDy=0;" edge="1" parent="1" source="E6c6x8Zhx2v9xlgIFuhv-6" target="E6c6x8Zhx2v9xlgIFuhv-5">
          <mxGeometry width="50" height="50" relative="1" as="geometry">
            <mxPoint x="80" y="510" as="sourcePoint" />
            <mxPoint x="130" y="460" as="targetPoint" />
          </mxGeometry>
        </mxCell>
        <mxCell id="E6c6x8Zhx2v9xlgIFuhv-111" value="" style="rhombus;whiteSpace=wrap;html=1;direction=south;" vertex="1" parent="1">
          <mxGeometry x="620" y="417.5" width="150" height="60" as="geometry" />
        </mxCell>
        <mxCell id="E6c6x8Zhx2v9xlgIFuhv-115" value="Wchodzą w" style="rhombus;whiteSpace=wrap;html=1;direction=south;" vertex="1" parent="1">
          <mxGeometry x="637.5" y="423.75" width="115" height="47.5" as="geometry" />
        </mxCell>
        <mxCell id="E6c6x8Zhx2v9xlgIFuhv-116" value="" style="endArrow=none;html=1;rounded=0;entryX=1;entryY=1;entryDx=0;entryDy=0;exitX=0.25;exitY=0;exitDx=0;exitDy=0;" edge="1" parent="1" source="E6c6x8Zhx2v9xlgIFuhv-1" target="E6c6x8Zhx2v9xlgIFuhv-3">
          <mxGeometry width="50" height="50" relative="1" as="geometry">
            <mxPoint x="440" y="480" as="sourcePoint" />
            <mxPoint x="490" y="430" as="targetPoint" />
          </mxGeometry>
        </mxCell>
        <mxCell id="E6c6x8Zhx2v9xlgIFuhv-117" value="" style="endArrow=none;html=1;rounded=0;entryX=0;entryY=1;entryDx=0;entryDy=0;exitX=0.75;exitY=0;exitDx=0;exitDy=0;" edge="1" parent="1" source="E6c6x8Zhx2v9xlgIFuhv-1" target="E6c6x8Zhx2v9xlgIFuhv-4">
          <mxGeometry width="50" height="50" relative="1" as="geometry">
            <mxPoint x="440" y="480" as="sourcePoint" />
            <mxPoint x="490" y="430" as="targetPoint" />
          </mxGeometry>
        </mxCell>
        <mxCell id="E6c6x8Zhx2v9xlgIFuhv-118" value="" style="endArrow=none;html=1;rounded=0;entryX=0.75;entryY=1;entryDx=0;entryDy=0;exitX=0;exitY=0.5;exitDx=0;exitDy=0;" edge="1" parent="1" source="E6c6x8Zhx2v9xlgIFuhv-15" target="E6c6x8Zhx2v9xlgIFuhv-1">
          <mxGeometry width="50" height="50" relative="1" as="geometry">
            <mxPoint x="440" y="480" as="sourcePoint" />
            <mxPoint x="490" y="430" as="targetPoint" />
          </mxGeometry>
        </mxCell>
        <mxCell id="E6c6x8Zhx2v9xlgIFuhv-119" value="" style="endArrow=classic;html=1;rounded=0;entryX=1;entryY=0.5;entryDx=0;entryDy=0;exitX=0.5;exitY=1;exitDx=0;exitDy=0;" edge="1" parent="1" source="E6c6x8Zhx2v9xlgIFuhv-111" target="E6c6x8Zhx2v9xlgIFuhv-1">
          <mxGeometry width="50" height="50" relative="1" as="geometry">
            <mxPoint x="570" y="510" as="sourcePoint" />
            <mxPoint x="620" y="460" as="targetPoint" />
          </mxGeometry>
        </mxCell>
        <mxCell id="E6c6x8Zhx2v9xlgIFuhv-120" value="" style="endArrow=none;html=1;rounded=0;exitX=0.5;exitY=0;exitDx=0;exitDy=0;" edge="1" parent="1" source="E6c6x8Zhx2v9xlgIFuhv-111">
          <mxGeometry width="50" height="50" relative="1" as="geometry">
            <mxPoint x="820" y="500" as="sourcePoint" />
            <mxPoint x="860" y="448" as="targetPoint" />
          </mxGeometry>
        </mxCell>
        <mxCell id="E6c6x8Zhx2v9xlgIFuhv-121" value="" style="rhombus;whiteSpace=wrap;html=1;direction=south;" vertex="1" parent="1">
          <mxGeometry x="830" y="570" width="150" height="60" as="geometry" />
        </mxCell>
        <mxCell id="E6c6x8Zhx2v9xlgIFuhv-122" value="Posiada" style="rhombus;whiteSpace=wrap;html=1;direction=south;" vertex="1" parent="1">
          <mxGeometry x="847.5" y="576.25" width="115" height="47.5" as="geometry" />
        </mxCell>
        <mxCell id="E6c6x8Zhx2v9xlgIFuhv-123" value="" style="endArrow=classic;html=1;rounded=0;entryX=0.5;entryY=0;entryDx=0;entryDy=0;exitX=1;exitY=0.5;exitDx=0;exitDy=0;" edge="1" parent="1" source="E6c6x8Zhx2v9xlgIFuhv-121" target="E6c6x8Zhx2v9xlgIFuhv-25">
          <mxGeometry width="50" height="50" relative="1" as="geometry">
            <mxPoint x="840" y="550" as="sourcePoint" />
            <mxPoint x="890" y="500" as="targetPoint" />
          </mxGeometry>
        </mxCell>
        <mxCell id="E6c6x8Zhx2v9xlgIFuhv-124" value="" style="endArrow=none;html=1;rounded=0;entryX=0.5;entryY=1;entryDx=0;entryDy=0;exitX=0;exitY=0.5;exitDx=0;exitDy=0;" edge="1" parent="1" source="E6c6x8Zhx2v9xlgIFuhv-121" target="E6c6x8Zhx2v9xlgIFuhv-13">
          <mxGeometry width="50" height="50" relative="1" as="geometry">
            <mxPoint x="840" y="550" as="sourcePoint" />
            <mxPoint x="890" y="500" as="targetPoint" />
          </mxGeometry>
        </mxCell>
        <mxCell id="E6c6x8Zhx2v9xlgIFuhv-125" value="" style="endArrow=none;html=1;rounded=0;entryX=1;entryY=1;entryDx=0;entryDy=0;exitX=0.25;exitY=0;exitDx=0;exitDy=0;" edge="1" parent="1" source="E6c6x8Zhx2v9xlgIFuhv-13" target="E6c6x8Zhx2v9xlgIFuhv-23">
          <mxGeometry width="50" height="50" relative="1" as="geometry">
            <mxPoint x="910" y="530" as="sourcePoint" />
            <mxPoint x="960" y="480" as="targetPoint" />
          </mxGeometry>
        </mxCell>
        <mxCell id="E6c6x8Zhx2v9xlgIFuhv-126" value="" style="endArrow=none;html=1;rounded=0;entryX=0.5;entryY=1;entryDx=0;entryDy=0;exitX=0.75;exitY=0;exitDx=0;exitDy=0;" edge="1" parent="1" source="E6c6x8Zhx2v9xlgIFuhv-13" target="E6c6x8Zhx2v9xlgIFuhv-16">
          <mxGeometry width="50" height="50" relative="1" as="geometry">
            <mxPoint x="910" y="530" as="sourcePoint" />
            <mxPoint x="960" y="480" as="targetPoint" />
          </mxGeometry>
        </mxCell>
        <mxCell id="E6c6x8Zhx2v9xlgIFuhv-127" value="" style="endArrow=none;html=1;rounded=0;entryX=0;entryY=1;entryDx=0;entryDy=0;exitX=1;exitY=0.5;exitDx=0;exitDy=0;" edge="1" parent="1" source="E6c6x8Zhx2v9xlgIFuhv-13" target="E6c6x8Zhx2v9xlgIFuhv-18">
          <mxGeometry width="50" height="50" relative="1" as="geometry">
            <mxPoint x="910" y="530" as="sourcePoint" />
            <mxPoint x="960" y="480" as="targetPoint" />
          </mxGeometry>
        </mxCell>
        <mxCell id="E6c6x8Zhx2v9xlgIFuhv-128" value="" style="endArrow=none;html=1;rounded=0;entryX=0;entryY=0;entryDx=0;entryDy=0;exitX=1;exitY=0.75;exitDx=0;exitDy=0;" edge="1" parent="1" source="E6c6x8Zhx2v9xlgIFuhv-13" target="E6c6x8Zhx2v9xlgIFuhv-19">
          <mxGeometry width="50" height="50" relative="1" as="geometry">
            <mxPoint x="910" y="530" as="sourcePoint" />
            <mxPoint x="960" y="480" as="targetPoint" />
          </mxGeometry>
        </mxCell>
        <mxCell id="E6c6x8Zhx2v9xlgIFuhv-129" value="" style="endArrow=none;html=1;rounded=0;exitX=1;exitY=0;exitDx=0;exitDy=0;entryX=0.25;entryY=1;entryDx=0;entryDy=0;" edge="1" parent="1" source="E6c6x8Zhx2v9xlgIFuhv-28" target="E6c6x8Zhx2v9xlgIFuhv-25">
          <mxGeometry width="50" height="50" relative="1" as="geometry">
            <mxPoint x="860" y="740" as="sourcePoint" />
            <mxPoint x="910" y="690" as="targetPoint" />
          </mxGeometry>
        </mxCell>
        <mxCell id="E6c6x8Zhx2v9xlgIFuhv-130" value="" style="endArrow=none;html=1;rounded=0;entryX=0.5;entryY=1;entryDx=0;entryDy=0;exitX=0.5;exitY=0;exitDx=0;exitDy=0;" edge="1" parent="1" source="E6c6x8Zhx2v9xlgIFuhv-27" target="E6c6x8Zhx2v9xlgIFuhv-25">
          <mxGeometry width="50" height="50" relative="1" as="geometry">
            <mxPoint x="860" y="740" as="sourcePoint" />
            <mxPoint x="910" y="690" as="targetPoint" />
          </mxGeometry>
        </mxCell>
        <mxCell id="E6c6x8Zhx2v9xlgIFuhv-131" value="" style="endArrow=none;html=1;rounded=0;exitX=1;exitY=0.75;exitDx=0;exitDy=0;entryX=0;entryY=0;entryDx=0;entryDy=0;" edge="1" parent="1" source="E6c6x8Zhx2v9xlgIFuhv-25" target="E6c6x8Zhx2v9xlgIFuhv-30">
          <mxGeometry width="50" height="50" relative="1" as="geometry">
            <mxPoint x="950" y="730" as="sourcePoint" />
            <mxPoint x="1000" y="680" as="targetPoint" />
          </mxGeometry>
        </mxCell>
        <mxCell id="E6c6x8Zhx2v9xlgIFuhv-132" value="" style="endArrow=none;html=1;rounded=0;entryX=0;entryY=0.5;entryDx=0;entryDy=0;exitX=1;exitY=0.25;exitDx=0;exitDy=0;" edge="1" parent="1" source="E6c6x8Zhx2v9xlgIFuhv-25" target="E6c6x8Zhx2v9xlgIFuhv-29">
          <mxGeometry width="50" height="50" relative="1" as="geometry">
            <mxPoint x="950" y="730" as="sourcePoint" />
            <mxPoint x="1000" y="680" as="targetPoint" />
          </mxGeometry>
        </mxCell>
      </root>
    </mxGraphModel>
  </diagram>
</mxfile>
